<svg id="svg" version="1.1" xmlns="http://www.w3.org/2000/svg" xmlns:xlink="http://www.w3.org/1999/xlink" width="400" height="529.3233082706766" viewBox="0, 0, 400,529.3233082706766"><g id="svgg"><path id="path0" d="M168.421 7.691 C 115.364 36.598,89.376 90.383,99.197 150.960 C 101.205 163.349,100.709 164.309,81.259 185.714 C 45.158 225.442,40.166 288.330,72.347 297.972 C 78.445 299.799,79.529 301.276,76.264 303.309 C 75.202 303.970,71.672 308.233,68.419 312.782 C 65.166 317.331,62.118 321.391,61.644 321.805 C 60.050 323.197,52.936 340.556,51.873 345.644 C 47.514 366.526,57.649 386.310,74.060 388.951 C 77.162 389.450,79.699 390.028,79.699 390.236 C 79.699 390.443,77.329 394.549,74.432 399.361 C 62.971 418.393,56.254 443.111,57.402 462.034 L 58.015 472.149 50.483 474.650 C 21.976 484.119,4.511 502.695,4.511 523.547 L 4.511 527.820 161.810 527.820 L 319.110 527.820 318.447 519.925 C 315.872 489.243,292.124 475.626,238.127 473.869 C 209.152 472.926,200.776 470.993,203.884 465.964 C 204.326 465.248,203.900 464.662,202.935 464.662 C 201.971 464.662,201.576 463.636,202.057 462.382 C 203.248 459.279,200.326 422.106,198.518 417.350 C 196.667 412.482,198.521 412.484,204.311 417.356 C 210.528 422.586,215.221 435.720,215.725 449.294 C 216.229 462.859,212.018 461.108,248.872 463.077 C 308.890 466.284,331.329 478.160,336.158 509.274 C 336.649 512.444,337.291 516.391,337.584 518.045 C 337.876 519.699,338.168 522.575,338.231 524.436 C 338.390 529.118,383.723 529.771,389.402 525.173 C 400.066 516.537,389.889 487.254,370.923 471.999 C 356.258 460.204,328.875 450.180,303.740 447.405 L 295.450 446.489 296.872 434.483 C 298.710 418.970,295.196 394.140,288.963 378.595 L 284.582 367.669 297.178 343.071 C 311.849 314.420,312.083 312.965,303.345 304.629 C 283.914 286.095,251.371 281.113,238.139 294.647 C 224.029 309.079,226.184 331.713,243.231 348.122 L 250.376 355.000 244.361 354.809 C 241.053 354.704,233.832 353.903,228.314 353.029 C 214.062 350.772,187.292 365.078,183.335 377.065 C 180.118 386.813,165.044 400.000,157.118 400.000 C 154.945 400.000,154.935 399.607,157.011 395.865 C 173.687 365.796,160.792 344.107,123.735 339.896 C 108.558 338.172,107.600 337.648,115.273 335.268 C 140.242 327.520,174.675 338.620,180.801 356.391 C 182.177 360.382,185.240 355.705,186.069 348.345 C 186.574 343.863,185.913 338.975,184.131 334.018 C 181.168 325.779,181.863 321.090,188.171 306.767 C 212.261 252.072,229.959 231.579,253.106 231.579 C 263.179 231.579,263.261 231.300,256.804 219.007 C 245.592 197.667,217.055 174.631,194.211 168.481 L 187.670 166.720 198.596 159.432 C 233.704 136.014,274.126 80.373,285.873 39.293 C 289.436 26.835,289.451 27.068,285.108 27.068 C 256.968 27.068,193.491 68.115,159.533 108.271 C 147.230 122.819,147.021 123.037,147.984 120.301 C 150.670 112.674,181.955 5.082,181.955 3.473 C 181.955 0.582,180.817 0.937,168.421 7.691 M329.323 125.839 C 329.323 129.905,317.960 162.089,311.908 175.164 L 306.350 187.171 303.939 183.435 C 296.160 171.387,281.665 160.902,272.787 160.902 L 267.840 160.902 272.993 172.210 C 280.884 189.524,284.638 206.013,283.858 219.925 C 283.067 234.032,283.568 234.211,296.478 224.436 C 325.943 202.127,343.994 154.917,333.063 128.755 C 330.595 122.848,329.323 121.857,329.323 125.839 M354.887 206.574 C 335.624 211.732,319.023 220.582,302.436 234.534 C 293.567 241.994,291.965 240.431,322.556 254.155 C 328.365 256.761,337.668 260.471,345.113 263.150 C 349.248 264.639,353.816 266.337,355.263 266.924 C 365.144 270.931,352.818 250.435,341.439 243.936 L 333.963 239.666 349.281 232.239 C 372.327 221.065,396.960 206.552,396.982 204.135 C 397.006 201.483,367.519 203.191,354.887 206.574 M129.439 222.441 C 135.419 228.421,135.355 234.801,129.254 240.903 C 120.738 249.418,107.763 243.732,107.691 231.453 C 107.619 219.148,120.718 213.720,129.439 222.441 " stroke="none" fill="#000000" fill-rule="evenodd"></path></g></svg>